<svg width="18" height="22" viewBox="0 0 18 22" fill="none" xmlns="http://www.w3.org/2000/svg">
<path d="M3.75 0.78125L1 4.88948V19.2683C1 19.8131 1.19315 20.3356 1.53697 20.7208C1.88079 21.106 2.3471 21.3224 2.83333 21.3224H15.6667C16.1529 21.3224 16.6192 21.106 16.963 20.7208C17.3068 20.3356 17.5 19.8131 17.5 19.2683V4.88948L14.75 0.78125H3.75Z" stroke="#292929" stroke-linecap="round" stroke-linejoin="round"/>
<path d="M1 4.88965H17.5" stroke="#292929" stroke-linecap="round" stroke-linejoin="round"/>
<path d="M12.9166 8.99756C12.9166 10.0876 12.5303 11.133 11.8427 11.9037C11.155 12.6745 10.2224 13.1075 9.24994 13.1075C8.27747 13.1075 7.34484 12.6745 6.6572 11.9037C5.96956 11.133 5.58325 10.0876 5.58325 8.99756" stroke="#292929" stroke-linecap="round" stroke-linejoin="round"/>
</svg>
