<svg width="66" height="66" viewBox="0 0 66 66" fill="none" xmlns="http://www.w3.org/2000/svg">
<g filter="url(#filter0_dd)">
<rect x="14" y="14" width="38" height="38" rx="19" fill="url(#paint0_linear)"/>
</g>
<path d="M27.8967 23C28.799 23 29.6644 23.3538 30.3024 23.9834C30.9405 24.6131 31.2989 25.4672 31.2989 26.3577C31.2989 26.9788 31.1118 27.5496 30.8226 28.0365C30.8226 28.0365 29.5978 27.7007 27.8967 27.7007C26.1956 27.7007 24.9708 28.0365 24.9708 28.0365C24.6817 27.5496 24.4945 26.9788 24.4945 26.3577C24.4945 25.4672 24.853 24.6131 25.491 23.9834C26.129 23.3538 26.9944 23 27.8967 23V23ZM38.1033 23C39.9915 23 41.5055 24.4942 41.5055 26.3577C41.5055 26.9788 41.3184 27.5496 41.0292 28.0365C41.0292 28.0365 39.8044 27.7007 38.1033 27.7007C36.4022 27.7007 35.1774 28.0365 35.1774 28.0365C34.8882 27.5496 34.7011 26.9788 34.7011 26.3577C34.7011 24.4942 36.2151 23 38.1033 23V23ZM33 46C36.0856 46.0024 39.0946 45.0518 41.6052 43.2816C44.1158 41.5113 46.0022 39.0101 47 36.1285L44.7546 35.3562C43.0365 40.3255 38.3074 43.6496 33 43.6496C27.6926 43.6496 22.9635 40.3255 21.2454 35.3562L19 36.1285C19.9978 39.0101 21.8842 41.5113 24.3948 43.2816C26.9054 45.0518 29.9144 46.0024 33 46Z" fill="#252525"/>
<defs>
<filter id="filter0_dd" x="0" y="0" width="66" height="66" filterUnits="userSpaceOnUse" color-interpolation-filters="sRGB">
<feFlood flood-opacity="0" result="BackgroundImageFix"/>
<feColorMatrix in="SourceAlpha" type="matrix" values="0 0 0 0 0 0 0 0 0 0 0 0 0 0 0 0 0 0 127 0"/>
<feOffset dx="2" dy="2"/>
<feGaussianBlur stdDeviation="6"/>
<feColorMatrix type="matrix" values="0 0 0 0 0.788235 0 0 0 0 0.694118 0 0 0 0 0.882353 0 0 0 0.34 0"/>
<feBlend mode="normal" in2="BackgroundImageFix" result="effect1_dropShadow"/>
<feColorMatrix in="SourceAlpha" type="matrix" values="0 0 0 0 0 0 0 0 0 0 0 0 0 0 0 0 0 0 127 0"/>
<feOffset dx="-2" dy="-2"/>
<feGaussianBlur stdDeviation="6"/>
<feColorMatrix type="matrix" values="0 0 0 0 0.74902 0 0 0 0 0.933333 0 0 0 0 0.890196 0 0 0 0.34 0"/>
<feBlend mode="normal" in2="effect1_dropShadow" result="effect2_dropShadow"/>
<feBlend mode="normal" in="SourceGraphic" in2="effect2_dropShadow" result="shape"/>
</filter>
<linearGradient id="paint0_linear" x1="9.94017" y1="3.14285" x2="50.9411" y2="13.7011" gradientUnits="userSpaceOnUse">
<stop offset="0.604651" stop-color="#FFD2B9"/>
</linearGradient>
</defs>
</svg>
